<?xml version="1.0" encoding="utf-8"?>
<!-- Generator: Adobe Illustrator 23.0.5, SVG Export Plug-In . SVG Version: 6.00 Build 0)  -->
<svg version="1.1" id="Layer_1" xmlns="http://www.w3.org/2000/svg" xmlns:xlink="http://www.w3.org/1999/xlink" x="0px" y="0px"
	 viewBox="0 0 512 512" style="enable-background:new 0 0 512 512;" xml:space="preserve">
<style type="text/css">
	.st0{fill:#1180B0;}
	.st1{fill:#FC6802;}
</style>
<path class="st0" d="M128,328.4h16v15h-16V328.4z"/>
<path class="st0" d="M64,424.4h16v15H64V424.4z"/>
<path class="st0" d="M192,424.4h16v15h-16V424.4z"/>
<path class="st0" d="M352,424.4h16v15h-16V424.4z"/>
<path class="st1" d="M256,247.4c17.6,0,34.2-4.4,48.7-12.2l95.3,95.3l42.6-42.6l-95.3-95.3c7.8-14.5,12.2-31.1,12.2-48.7
	c0-57.1-46.4-103.5-103.5-103.5S152.5,86.9,152.5,143.9S198.9,247.4,256,247.4z M421.4,287.9L400,309.3L317.7,227
	c8.1-6.1,15.3-13.3,21.4-21.4L421.4,287.9z M256,55.4c48.8,0,88.5,39.7,88.5,88.5s-39.7,88.5-88.5,88.5s-88.5-39.7-88.5-88.5
	S207.2,55.4,256,55.4L256,55.4z"/>
<path class="st1" d="M256,215.4c39.4,0,71.5-32.1,71.5-71.5c0-25.4-13.7-49.2-35.7-61.9l-7.5,13c17.4,10.1,28.3,28.8,28.3,48.9
	c0,31.2-25.3,56.5-56.5,56.5s-56.5-25.3-56.5-56.5s25.3-56.5,56.5-56.5c4.8,0,9.5,0.6,14.1,1.8l3.7-14.5c-5.8-1.5-11.8-2.3-17.9-2.3
	c-39.4,0-71.5,32.1-71.5,71.5S216.6,215.4,256,215.4L256,215.4z"/>
<path class="st0" d="M471.5,456.6v-96.1h-143v96.1h-17v-96.1h-192v-81h33v48h47v-48h33v64.5h15v-79.5h-143v96h-64v79.5h15v-64.5h33
	v48h47v-48h33v81.1H0v15h512v-15H471.5z M184.5,312.4h-17v-33h17V312.4z M391.5,375.4h17v33h-17V375.4z M343.5,375.4h33v48h47v-48
	h33v81.1h-113V375.4z M231.5,375.4h17v33h-17V375.4z M120.5,408.4h-17v-33h17V408.4z M183.5,375.4h33v48h47v-48h33v81.1h-113V375.4z
	"/>
<path class="st1" d="M216,136.4h16v15h-16V136.4z"/>
<path class="st1" d="M248,136.4h16v15h-16V136.4z"/>
<path class="st1" d="M280,136.4h16v15h-16V136.4z"/>
</svg>
