<?xml version="1.0" encoding="utf-8"?>
<!-- Generator: Adobe Illustrator 23.0.5, SVG Export Plug-In . SVG Version: 6.00 Build 0)  -->
<svg version="1.1" id="Layer_1" xmlns="http://www.w3.org/2000/svg" xmlns:xlink="http://www.w3.org/1999/xlink" x="0px" y="0px"
	 viewBox="0 0 512 512" style="enable-background:new 0 0 512 512;" xml:space="preserve">
<style type="text/css">
	.st0{fill:#1180B0;}
	.st1{fill:#FC6802;}
</style>
<path class="st0" d="M492.7,281.5c-2.1-1.5-4.8-1.9-7.2-1.1l-16.4,5.4l0,0c-9.2,3-19,3.6-28.4,1.7c30.6-115.2-38-233.4-153.2-264
	S54,61.5,23.4,176.7s38,233.4,153.2,264c18.1,4.8,36.7,7.2,55.4,7.2c1.4,0,2.8,0,3.8-0.1h0.3c31.9-0.6,63.2-8.3,91.8-22.5
	c8.5,20.6,23.5,38,42.6,49.4l33.4,20c2.5,1.5,5.7,1.5,8.2,0l33.4-20c31.3-18.9,50.4-52.7,50.5-89.2V288
	C496,285.4,494.8,283,492.7,281.5z M240,431.4V336h80v19C300.2,399.8,271.4,427.3,240,431.4z M32.2,224c1.1-27.8,8-55,20.3-80h62.7
	c-6.8,26.1-10.5,53-11,80H32.2z M131.5,144H224v80H120.1C120.6,197,124.4,170.1,131.5,144z M431.8,224h-71.9c-0.5-27-4.2-53.9-11-80
	h62.7C423.8,169,430.7,196.2,431.8,224z M343.9,224H240v-80h92.5C339.6,170.1,343.4,197,343.9,224z M240,128V32.6
	c37.1,4.7,69.2,41.7,87.6,95.4H240z M224,32.6V128h-87.6C154.8,74.3,186.9,37.3,224,32.6z M224,240v80h-92.2
	c-7.1-26.1-11-53-11.5-80H224z M224,336v95.5c-35.9-4.6-68.4-40.1-87.4-95.5H224z M330.5,280.4c-4.2-1.4-8.7,0.9-10.1,5.1
	c-0.3,0.8-0.4,1.7-0.4,2.5v32h-80v-80h103.8c-0.3,14.6-1.6,29.1-3.8,43.6L330.5,280.4z M359.8,240h71.9c-0.6,14.3-2.6,28.5-6.2,42.3
	c-2.6-1.4-5.1-2.9-7.5-4.7l-5.5-4.1c-2.9-2.1-6.8-2.1-9.6,0.1l-4.8,3.7c-12.1,9.1-27.5,13-42.5,10.6C358.1,272,359.5,256,359.8,240z
	 M402.8,128h-58.6c-9.7-33-27.7-62.9-52.3-86.8C338.1,55.8,377.5,86.6,402.8,128z M172.1,41.2c-24.6,24-42.6,53.9-52.3,86.8H61.2
	C86.5,86.6,125.9,55.8,172.1,41.2z M32.2,240h72c0.5,27,4.2,53.9,11,80H52.5C40.2,295.1,33.3,267.8,32.2,240z M61.2,336h58.6
	c9.4,32.8,27.1,62.6,51.5,86.5C125.4,408,86.2,377.2,61.2,336z M320.1,389.1c0.2,7.1,1.2,14.1,2.8,20.9c-9.7,5-19.8,9.2-30.1,12.5
	C303.4,412.7,312.6,401.4,320.1,389.1z M480,385.7c-0.1,30.9-16.3,59.5-42.8,75.5L408,478.7l-29.2-17.5
	c-26.5-15.9-42.8-44.5-42.8-75.5v-86.6l5.7,1.9c0.9,0.3,1.8,0.5,2.6,0.7c21.8,6.3,45.4,2,63.5-11.7l0,0l0.7,0.5
	c18.9,14,43.4,17.9,65.7,10.5l5.9-2V385.7z"/>
<path class="st1" d="M492.7,281.5c-2.1-1.5-4.8-1.9-7.2-1.1l-16.4,5.4c-9.2,3-19,3.6-28.4,1.7c0,0,0,0,0-0.1
	c-4.7-0.9-9.3-2.1-13.8-4.2c-0.7-0.3-1.3-0.7-1.8-1.2c-2.5-1.3-4.9-2.8-7.1-4.5l-5.5-4.1c-2.9-2.1-6.8-2.1-9.6,0.1l-4.8,3.7
	c-12.1,9.1-27.5,13-42.5,10.6c0-0.2,0.1-0.5,0.1-0.7c-0.3-0.1-0.5-0.2-0.8-0.3c-3.8-0.4-7.5-1-11-2.4c-1.2-0.5-2.5-1-3.7-1.6
	c0,0.2-0.1,0.5-0.1,0.7l-9.5-3.1c-4.2-1.4-8.7,0.9-10.1,5.1c-0.3,0.8-0.4,1.7-0.4,2.5v31.9c0.2,0.7,0.3,1.5,0.3,2.2
	c0.1,7,0.4,13.8-0.3,20.6V355c-0.2,0.5-0.5,1.1-0.7,1.6c0,0.1,0,0.2,0,0.3v33.5c0.3-0.4,0.6-0.9,0.8-1.3c0.2,7.1,1.2,14.1,2.8,20.9
	c-0.1,0.1-0.3,0.1-0.4,0.2c0,0,0,0.1,0,0.1c0.3,0.6,0.5,1.1,0.7,1.8c1.2,4.6,2.7,9.1,4.1,13.6c0.2-0.1,0.4-0.2,0.6-0.3
	c8.5,20.6,23.5,38,42.6,49.4l33.4,20c2.5,1.5,5.7,1.5,8.2,0l33.4-20c31.3-18.9,50.4-52.7,50.5-89.2V288
	C496,285.4,494.8,283,492.7,281.5z M480,385.7c-0.1,30.9-16.3,59.5-42.8,75.5L408,478.7l-29.2-17.5c-26.5-15.9-42.8-44.5-42.8-75.5
	v-86.6l5.7,1.9c0.9,0.3,1.8,0.5,2.6,0.7c21.8,6.3,45.4,2,63.5-11.7l0.7,0.5c18.9,14,43.4,17.9,65.7,10.5l5.9-2V385.7z"/>
<path class="st1" d="M462.8,311.9c-12.5,1.8-25.2,0.6-37.1-3.4c-4.9-1.6-9.5-3.7-14-6.3c-2.5-1.4-5.5-1.4-7.9,0
	c-15.4,8.7-33.2,12.1-50.7,9.7c-4.4-0.6-8.4,2.4-9,6.8c-0.1,0.4-0.1,0.7-0.1,1.1v65.9c0,28.1,14.8,54.1,38.9,68.6l21,12.6
	c2.5,1.5,5.7,1.5,8.2,0l21-12.6c24-14.5,38.8-40.5,38.9-68.6v-65.9c0-4.4-3.6-8-8-8C463.6,311.8,463.2,311.8,462.8,311.9z
	 M456,385.7c-0.1,22.5-11.9,43.3-31.1,54.9L408,450.7l-16.9-10.1l0,0C371.8,429,360,408.2,360,385.7v-57.2
	c16.5,0.7,33-2.8,47.8-10.3c4.1,2.1,8.4,3.9,12.8,5.4c11.4,3.9,23.4,5.6,35.4,5V385.7z"/>
<path class="st1" d="M434.3,362.3L400,396.7l-17-17c-3.1-3.2-8.1-3.3-11.3-0.2c-3.2,3.1-3.3,8.1-0.2,11.3c0.1,0.1,0.1,0.1,0.2,0.2
	l22.6,22.6c3.1,3.1,8.2,3.1,11.3,0l40-40c3.1-3.2,3-8.2-0.2-11.3C442.4,359.3,437.4,359.3,434.3,362.3L434.3,362.3z"/>
</svg>
